<svg xmlns="http://www.w3.org/2000/svg" version="1.1" viewBox="0.00 0.00 250.00 250.00" width="250.00" height="250.00">
<path stroke="#3b8171" stroke-width="2.00" fill="none" stroke-linecap="butt" d="&#10;  M 96.27 220.53&#10;  L 119.18 132.09&#10;  A 0.29 0.28 89.5 0 0 118.83 131.74&#10;  L 30.87 155.19"/>
<path fill="#41b883" d="&#10;  M 96.27 220.53&#10;  L 119.18 132.09&#10;  A 0.29 0.28 89.5 0 0 118.83 131.74&#10;  L 30.87 155.19&#10;  L 4.73 147.59&#10;  A 0.12 0.12 0.0 0 1 4.67 147.40&#10;  L 29.48 114.45&#10;  Q 29.78 114.04 30.29 114.06&#10;  Q 68.34 115.24 73.99 115.47&#10;  Q 75.51 115.54 76.56 115.03&#10;  Q 77.32 114.67 78.38 113.35&#10;  Q 103.41 82.33 127.54 55.79&#10;  C 133.43 49.31 140.53 41.69 147.07 36.34&#10;  Q 165.20 21.51 186.24 13.43&#10;  Q 215.08 2.36 247.70 1.23&#10;  A 1.10 1.09 -89.5 0 1 248.83 2.38&#10;  C 247.38 32.68 240.18 62.50 224.32 88.06&#10;  Q 214.67 103.62 200.18 116.94&#10;  Q 169.85 144.79 137.35 171.10&#10;  C 136.16 172.06 135.70 174.70 135.70 176.42&#10;  Q 135.64 198.51 135.49 220.60&#10;  Q 135.49 221.09 135.11 221.38&#10;  L 103.45 246.23&#10;  Q 103.04 246.56 102.88 246.05&#10;  Q 98.68 232.78 96.27 220.53&#10;  Z&#10;  M 192.48 76.92&#10;  A 19.38 19.38 0.0 0 0 173.10 57.54&#10;  A 19.38 19.38 0.0 0 0 153.72 76.92&#10;  A 19.38 19.38 0.0 0 0 173.10 96.30&#10;  A 19.38 19.38 0.0 0 0 192.48 76.92&#10;  Z"/>
<path fill="#35495e" d="&#10;  M 96.27 220.53&#10;  L 93.64 208.98&#10;  A 0.74 0.73 84.3 0 0 92.95 208.41&#10;  Q 90.71 208.32 89.16 207.66&#10;  Q 88.66 207.45 88.17 207.67&#10;  Q 81.61 210.63 74.39 213.65&#10;  Q 72.75 214.34 71.50 214.29&#10;  C 69.42 214.20 64.34 211.02 62.75 209.82&#10;  Q 51.72 201.51 42.75 190.51&#10;  C 40.15 187.33 36.28 182.18 36.14 178.52&#10;  Q 36.10 177.46 36.87 175.73&#10;  Q 37.84 173.56 41.95 164.20&#10;  Q 42.91 162.01 42.67 160.75&#10;  Q 42.36 159.17 42.02 157.63&#10;  A 0.89 0.88 88.5 0 0 41.31 156.95&#10;  L 30.87 155.19&#10;  L 118.83 131.74&#10;  A 0.29 0.28 89.5 0 1 119.18 132.09&#10;  L 96.27 220.53&#10;  Z"/>
<path fill="#ff213c" d="&#10;  M 17.89 232.11&#10;  Q 17.95 232.18 18.03 232.18&#10;  Q 31.39 232.78 45.01 229.23&#10;  Q 55.89 226.40 64.38 220.17&#10;  Q 64.96 219.74 65.53 220.17&#10;  L 68.89 222.70&#10;  Q 69.20 222.93 68.96 223.23&#10;  Q 55.40 240.32 33.21 245.63&#10;  Q 26.15 247.32 20.73 248.13&#10;  C 13.58 249.20 7.56 250.00 0.77 249.41&#10;  Q 0.69 249.40 0.65 249.36&#10;  Q 0.61 249.32 0.60 249.24&#10;  C 0.00 242.45 0.80 236.43 1.87 229.28&#10;  Q 2.68 223.86 4.37 216.80&#10;  Q 9.67 194.60 26.76 181.04&#10;  Q 27.06 180.80 27.29 181.11&#10;  L 29.82 184.47&#10;  Q 30.25 185.04 29.82 185.62&#10;  Q 23.59 194.11 20.77 204.99&#10;  Q 17.22 218.61 17.82 231.97&#10;  Q 17.82 232.05 17.89 232.11&#10;  Z"/>
</svg>